<svg width="391" height="382" viewBox="0 0 391 382" fill="none" xmlns="http://www.w3.org/2000/svg">
<path fill-rule="evenodd" clip-rule="evenodd" d="M195.5 382C303.472 382 391 296.486 391 191C391 85.5136 303.472 0 195.5 0C87.5283 0 0 85.5136 0 191C0 296.486 87.5283 382 195.5 382ZM325.246 237.709C325.246 237.709 284.393 214.311 268.742 237.709C253.092 261.108 226.132 276.557 195.5 276.557C147.135 276.557 107.927 238.045 107.927 190.538C107.927 143.03 147.135 104.518 195.5 104.518C228.494 104.518 257.226 122.441 272.157 148.915C287.087 175.39 327.289 148.915 327.289 148.915C309.089 95.7398 256.964 57.3462 195.5 57.3462C118.9 57.3462 56.8039 116.978 56.8039 190.538C56.8039 264.097 118.9 323.729 195.5 323.729C254.804 323.729 305.414 287.986 325.246 237.709Z" fill="url(#paint0_linear_1_15)"/>
<defs>
<linearGradient id="paint0_linear_1_15" x1="84.6051" y1="33" x2="322.399" y2="337.233" gradientUnits="userSpaceOnUse">
<stop stop-color="#85C6FF"/>
<stop offset="1" stop-color="#9A07E4"/>
</linearGradient>
</defs>
</svg>
